<?xml version="1.0" encoding="UTF-8"?>
<svg width="31px" height="31px" viewBox="0 0 31 31" version="1.1" xmlns="http://www.w3.org/2000/svg" xmlns:xlink="http://www.w3.org/1999/xlink">
    <!-- Generator: Sketch 45.1 (43504) - http://www.bohemiancoding.com/sketch -->
    <title>!</title>
    <desc>Created with Sketch.</desc>
    <defs>
        <polygon id="path-1" points="15.1017949 30.5180534 30.2025354 30.5180534 30.2025354 0.365580848 15.1017949 0.365580848 0.00105438002 0.365580848 0.00105438002 30.5180534"></polygon>
        <polygon id="path-3" points="0 30 30 30 30 0 0 0"></polygon>
    </defs>
    <g id="Page-1" stroke="none" stroke-width="1" fill="none" fill-rule="evenodd">
        <g id="2-AddressInput-Error-1200px-" transform="translate(-440.000000, -552.000000)">
            <g id="!" transform="translate(440.000000, 552.000000)">
                <g id="Page-1">
                    <g id="Group-3">
                        <mask id="mask-2" fill="white">
                            <use xlink:href="#path-1"></use>
                        </mask>
                        <g id="Clip-2"></g>
                        <path d="M3.47529481,27.8689168 L15.1020637,4.65188383 L26.7288325,27.8689168 L3.47529481,27.8689168 Z M30.0613797,28.6000785 L16.2880896,1.09939168 C16.0439858,0.609301413 15.5743514,0.365580848 15.1020637,0.365580848 C14.6297759,0.365580848 14.1601415,0.609301413 13.9160377,1.09939168 L0.142747642,28.6000785 C-0.297700472,29.482241 0.341745283,30.5180534 1.32877358,30.5180534 L28.8753538,30.5180534 C29.8597288,30.5180534 30.5044811,29.482241 30.0613797,28.6000785 L30.0613797,28.6000785 Z" id="Fill-1" fill="#FEFEFE" mask="url(#mask-2)"></path>
                    </g>
                    <mask id="mask-4" fill="white">
                        <use xlink:href="#path-3"></use>
                    </mask>
                    <g id="Clip-5"></g>
                    <polygon id="Fill-4" fill="#FEFEFE" mask="url(#mask-4)" points="14.1509434 19.245283 16.4150943 19.245283 16.4150943 11.3207547 14.1509434 11.3207547"></polygon>
                    <path d="M15,22.0754717 C14.2180363,22.0754717 13.5849057,22.7086024 13.5849057,23.490566 C13.5849057,24.2725297 14.2180363,24.9056604 15,24.9056604 C15.7819637,24.9056604 16.4150943,24.2725297 16.4150943,23.490566 C16.4150943,22.7086024 15.7819637,22.0754717 15,22.0754717" id="Fill-6" fill="#FEFEFE" mask="url(#mask-4)"></path>
                </g>
            </g>
        </g>
    </g>
</svg>