<?xml version="1.0" encoding="UTF-8"?>
<svg width="40px" height="40px" viewBox="0 0 40 40" version="1.1" xmlns="http://www.w3.org/2000/svg" xmlns:xlink="http://www.w3.org/1999/xlink">
    <!-- Generator: Sketch 45.1 (43504) - http://www.bohemiancoding.com/sketch -->
    <title>tick</title>
    <desc>Created with Sketch.</desc>
    <defs></defs>
    <g id="Page-1" stroke="none" stroke-width="1" fill="none" fill-rule="evenodd">
        <g id="5-PlaybackMessage-1200px-" transform="translate(-662.000000, -610.000000)" fill="#14AA37">
            <g id="serviceChecker" transform="translate(239.000000, 571.000000)">
                <g id="Group-5" transform="translate(423.000000, 36.000000)">
                    <g id="Group-4" transform="translate(0.000000, 3.000000)">
                        <g id="tick">
                            <polyline id="Fill-1" points="16.6440723 28.8888889 8.88888889 21.1736965 11.2380383 18.8333554 16.6507177 24.2181233 28.7686071 12.2222222 31.1111111 14.5625634 16.6440723 28.8888889"></polyline>
                            <path d="M20,0 C14.8826722,0 9.76534447,1.9508936 5.85720251,5.85602138 C-1.95240084,13.6662769 -1.95240084,26.3337231 5.85720251,34.1439786 C9.76534447,38.0491064 14.8826722,40 20,40 C25.1173278,40 30.2346555,38.0491064 34.1427975,34.1439786 C41.9524008,26.3337231 41.9524008,13.6662769 34.1427975,5.85602138 C30.2346555,1.9508936 25.1173278,0 20,0 Z M20,3.34057124 C24.4492693,3.34057124 28.6346555,5.07098714 31.7812109,8.21780524 C34.9277662,11.3679639 36.6580376,15.5503591 36.6580376,20 C36.6580376,24.4496409 34.9277662,28.6353766 31.7812109,31.7821948 C28.6346555,34.9290129 24.4492693,36.6594288 20,36.6594288 C15.5507307,36.6594288 11.3686848,34.9290129 8.21878914,31.7821948 C5.07223382,28.6353766 3.34196242,24.4496409 3.34196242,20 C3.34196242,15.5503591 5.07223382,11.3679639 8.21878914,8.21780524 C11.3686848,5.07098714 15.5507307,3.34057124 20,3.34057124 L20,3.34057124 Z" id="Fill-2"></path>
                        </g>
                    </g>
                </g>
            </g>
        </g>
    </g>
</svg>